<svg id="Layer_1" data-name="Layer 1" xmlns="http://www.w3.org/2000/svg" viewBox="0 0 520.4 727.15"><defs><style>.cls-1{fill:#f1a239;}.cls-2{fill:#010101;}.cls-3{fill:#f8f7f7;}</style></defs><path class="cls-1" d="M606.15,502.37q-38.94,0-77.86,0a48.75,48.75,0,0,1-5.41-.24c-3-.34-3.78-1.08-3.79-4,0-6.4-.11-12.82.24-19.21,1-18.92-2.89-36-15.35-51.14a329.66,329.66,0,0,1-49.64-81.52,179.25,179.25,0,0,1-13.77-58.85c-1.15-18.38,2.05-36,6.91-53.6A142.12,142.12,0,0,1,495,160.57a174.2,174.2,0,0,1,75.17-36.67,183.08,183.08,0,0,1,42.28-3.73c21.46.44,41.62,6,61.53,13.7,15.9,6.12,29.43,15.32,42.31,26.26,21.63,18.36,36.84,40.92,46.92,67.2a126,126,0,0,1,7.3,31.44c1.45,13,1.22,26.06.36,39.07-.79,12-4.18,23.46-8,34.8-10.48,31.34-26.68,59.6-46.24,86.05-4.25,5.74-9.3,10.85-13,17-6.81,11.54-9.81,24.06-9.82,37.37a206.29,206.29,0,0,0,.92,22.37c.47,4.43-1.84,6.83-6.59,6.89-6.33.07-12.65,0-19,0Z" transform="translate(-345.66 -20.67)"/><path class="cls-2" d="M610.06,612.34c-10.33,0-18.54-.08-26.75,0-9.59.11-17.55-3-23.3-11-2.21-3.1-5.86-3.63-9.3-4.26-9-1.64-16.85-5.4-23-12.33A37.81,37.81,0,0,1,521.15,573a3.32,3.32,0,0,1,1.64-4.38c1.25-.61,3-.43,3.62-2,.89-2.08.63-4.32.52-6.49-.15-2.67-1.39-4.42-4.38-4.48-2.22,0-3.36-1.13-3-3.53a23.35,23.35,0,0,0,0-3.45c0-4.57.08-4.86,4.54-5.74,1.91-.37,2.39-1.21,2.38-2.93a21.28,21.28,0,0,1,.39-5.78c.48-1.74-1.22-3.26-3.6-3.68-3.54-.64-3.59-.84-3.76-4.3-.11-2.39.58-4.66.57-7,0-1.75,1.47-1.84,2.76-2,2.38-.29,4.68.48,7,.49,7.14,0,14.29,0,21.43,0,11.41,0,22.84.27,34.24-.05,35.19-1,70.38-.1,105.56-.51,2.62,0,3.74.9,3.85,3.2.1,2,.34,4,.49,6,.24,3.35-.87,4.43-4.2,4.63-3.64.21-3.64.21-3.64,3.8,0,1.89,0,3.78,0,5.67a2,2,0,0,0,2.38,2.36,9,9,0,0,1,1.72,0c2.13.32,3.61,1.14,3.33,3.74a34.31,34.31,0,0,0,0,5.17c.16,4.07-.41,3.8-4.18,4.25-2.61.31-3.44,1.15-3.25,3.59.13,1.63,0,3.28,0,4.93,0,2.94.83,3.78,3.85,3.93,3.19.16,3.66.91,2.75,4-3.72,12.78-12.77,19.89-25.05,23.55A62.2,62.2,0,0,1,661.6,598c-3.67.59-5.86,3.08-7.9,5.74a20.87,20.87,0,0,1-14.6,8.07C628.74,613.1,618.32,611.92,610.06,612.34Z" transform="translate(-345.66 -20.67)"/><path class="cls-1" d="M619.12,58.42c0,7.8.08,15.6,0,23.39-.1,8.67-7.43,16-15.79,15.47-6.58-.44-10.4-5-13.25-10.47-1.66-3.2-1.38-6.71-1.39-10.13-.07-12.8,0-25.6,0-38.41,0-5.45,1.55-10.39,5.68-14.17,5-4.58,10.68-4,16.31-1.56A13.14,13.14,0,0,1,619.09,35C619.23,42.83,619.12,50.63,619.12,58.42Z" transform="translate(-345.66 -20.67)"/><path class="cls-1" d="M827,297.44h-21.9c-8.45,0-14.28-5.1-15.42-13.48s4-15.06,12.71-16.54a31.37,31.37,0,0,1,5.39-.45q20.67,0,41.35.09c6.8,0,14,5.17,16.31,11.52,2,5.65-1,12.79-6.9,16.41a16.25,16.25,0,0,1-8.64,2.45Z" transform="translate(-345.66 -20.67)"/><path class="cls-1" d="M384.45,303.84c-7.72,0-15.43.06-23.14,0-8.79-.09-16.23-7.47-15.62-15.9.47-6.47,5-10.25,10.33-13.09,3.26-1.74,6.87-1.44,10.37-1.46,12.72-.06,25.44,0,38.16,0,5.55,0,10.56,1.53,14.39,5.77,4.55,5,3.92,10.72,1.45,16.32a13.15,13.15,0,0,1-12.56,8.36C400,303.93,392.24,303.84,384.45,303.84Z" transform="translate(-345.66 -20.67)"/><path class="cls-1" d="M695.35,109.54a15.5,15.5,0,0,1,1.53-6.92q9.47-20.28,18.93-40.56c4-8.47,11.61-11.12,21.09-7.44,6.17,2.4,9.41,10.61,7.07,18.24-1.67,5.44-4.49,10.39-6.85,15.52-4.15,9-8.44,18-12.7,26.94-3.59,7.56-14.49,11.78-21.27,8.06C697.77,120.44,695.44,115.57,695.35,109.54Z" transform="translate(-345.66 -20.67)"/><path class="cls-1" d="M516.27,115.46c.05,8.27-5.16,14.85-12,15.75-5.83.76-14.17-3.53-16.73-8.89q-9.45-19.77-18.64-39.65c-2.89-6.28-3.12-12.61,1.42-18.34,6.05-7.63,20.41-6.29,24.63,2.45,6.89,14.24,13.46,28.64,20.14,43A12.91,12.91,0,0,1,516.27,115.46Z" transform="translate(-345.66 -20.67)"/><path class="cls-1" d="M765.82,183.87a15,15,0,0,1,7.79-12.45c13.36-7.86,26.8-15.57,40.25-23.28,6.42-3.68,14.09-1.51,19.2,4.75,6,7.3,2.43,16.87-4.14,21.45-5.53,3.85-11.55,6.88-17.36,10.27-7.22,4.23-14.51,8.32-21.8,12.43-6.69,3.77-13.17,2.61-19.23-1.39C766.9,193.24,765.8,189.32,765.82,183.87Z" transform="translate(-345.66 -20.67)"/><path class="cls-1" d="M445.81,189.27c0,8.82-3.12,13-9.17,15.18-6.52,2.37-12.26.77-18-2.63-11.14-6.63-22.47-12.94-33.64-19.51-5.5-3.24-9.33-7.78-9.47-14.56-.21-10.44,12.61-18.53,21.7-13.45q20.83,11.64,41.31,23.89C443.44,181.1,445.77,185.89,445.81,189.27Z" transform="translate(-345.66 -20.67)"/><path class="cls-1" d="M759.5,375.14c-.46-8.25,7.72-13.78,15.36-13.35a16.4,16.4,0,0,1,8.71,3q18.73,13.14,37.5,26.25a13.75,13.75,0,0,1,5.6,14.68C824.12,417,814.2,421.65,804.09,416c-7.72-4.35-14.62-10-21.93-15-5-3.44-9.82-7.14-14.87-10.51C761.76,386.76,759.85,381.38,759.5,375.14Z" transform="translate(-345.66 -20.67)"/><path class="cls-1" d="M452.08,383.28c-.1,6-3.77,11.13-9.78,15.19-10.95,7.39-21.63,15.18-32.52,22.65-4.8,3.3-10.11,4.6-15.87,2.59-6-2.09-8.17-7.1-9.15-12.67a12.77,12.77,0,0,1,5.34-13.21q19.23-13.71,38.71-27.1a15.67,15.67,0,0,1,21.43,3.93C451.6,376.61,452.12,378.66,452.08,383.28Z" transform="translate(-345.66 -20.67)"/><path class="cls-3" d="M600.82,437.32c0-10.51,0-21,0-31.54a11.2,11.2,0,0,1,4.87-9.91,62.64,62.64,0,0,1,8.83-5.37c8.38-4.09,12.62-10.79,13-20.12s.36-18.71.58-28.06c.31-13.37.57-26.74,1.46-40.08.45-6.79,4.41-10.67,11.37-11.18a42.36,42.36,0,0,0,13.45-3.67c5.53-2.34,7.5-6.59,8.21-12.29,1.56-12.45,1.09-24.9.88-37.36,0-.9,0-1.81-.06-2.71-.63-5.66,1.58-9.51,6.52-12.62,9.14-5.77,12.94-18.66,8.67-28.57-3.91-9.1-13.09-16.83-25.61-14.92-7.25,1.11-13.71,3.38-18.22,9.49a24,24,0,0,0,10.17,36.24c1.37.56,2.76,1.08,4.06,1.76a7,7,0,0,1,4.18,6.48c-.17,13,.43,25.94-.95,38.88-.55,5.2-3,7.89-8.21,9a89.72,89.72,0,0,0-10.06,2.29,19.86,19.86,0,0,0-11.19,8.72c-1.86,3.06-4,3.13-6.11.25-3.06-4.12-7.41-6.1-12.17-7.37-3.88-1-7.78-2-11.68-2.94a7.79,7.79,0,0,1-6-6.15A67.42,67.42,0,0,1,585.12,257c.15-4,2-6,5.91-7.13,5.35-1.59,8.91-8.51,7.65-14.86a16.75,16.75,0,0,0-33.09,1.68c-.43,5.25,2.1,9.25,6.34,12a5.82,5.82,0,0,1,2.94,5.93,111.2,111.2,0,0,0-.16,20.4c.82,8.12,4.6,13.64,12.63,16,3.23,1,6.5,1.7,9.78,2.42a29.19,29.19,0,0,1,4,1.08c5.09,1.9,7.53,5.44,7.55,10.9q.09,27.48.15,54.94c0,3.12.1,6.24.09,9.36,0,6.31-3.4,10.71-9.43,12.53-2.27.68-4.53,1.45-6.74,2.32a13.93,13.93,0,0,0-9.18,13.31c0,8.53.13,17.07.23,25.61a19.72,19.72,0,0,1-1.76,8.61c-1.14,2.48-2.23,2.87-4.67,1.55a66.76,66.76,0,0,1-9.58-6.47q-4.81-3.84-9.55-7.77c-3-2.48-4.08-5.68-4-9.57.33-12.14.65-24.3-.15-36.43-.42-6.36,1.73-10.48,7.73-13.44,10.34-5.11,17.64-12.68,20-24.32a34.91,34.91,0,0,0,.68-9.29,4.86,4.86,0,0,1,3.2-5.25c9.14-3.88,10.91-14.72,3.21-21.09-8.28-6.84-21.22-6.78-28.74,2.23a13.73,13.73,0,0,0-3.15,7.87c-.47,5.86,2.85,9.92,9.25,11.44,3.68.88,4.24,1.54,4.38,5.28a25.76,25.76,0,0,1-.94,8.52,13,13,0,0,1-6.26,8.14,235.77,235.77,0,0,0-21,13.29,11.86,11.86,0,0,0-5.28,10.25c0,2.79.09,5.59.12,8.38a18.4,18.4,0,0,1-.09,2.46c-.71,6.1-4,7.63-9,4.21-4-2.71-7.68-5.7-9.27-10.51-1-3-1.06-6.13-1.38-9.22-.53-5.15-.53-10.32-.63-15.49-.06-3.24.7-4.81,3.69-5.91,4.57-1.68,8.27-4.6,11.92-7.68,6.31-5.31,7.57-12.13,6.22-19.83-2-11.12-10.16-18.81-22.33-20.88-10.1-1.71-22,3.95-26.84,12.79-5.95,10.83-2,26.29,9.1,32.21,6.47,3.45,8.63,8.16,8.69,15,.06,6.54,0,13.12,1.23,19.62a16,16,0,0,0,5.45,9.4c5.47,4.72,11,9.32,18.16,11.5,2.94.89,4.2,3.1,4.17,6.22a77.86,77.86,0,0,0,1.07,14.46c1.75,9.77,8.15,16,16.1,21,1.87,1.18,3.74,2.37,5.58,3.61a9.85,9.85,0,0,1,4.7,8.69c-.06,7.55.73,15.07,1.13,22.6.2,3.67-.81,4.84-4.38,5-2.3.09-4.6.12-6.9.05-4.86-.14-6.44-1.57-7.07-6.36-.36-2.68-.64-5.37-.91-8.06-1.82-17.81-7.82-33.85-19.21-47.91-14.92-18.41-28.31-37.88-38.32-59.46-6.24-13.45-12.65-26.95-15.58-41.59-4.37-21.87-6.3-43.92-.83-65.9,4.74-19.07,13.32-36.42,26.46-51.09,22.19-24.78,49.44-41,82.43-47.07a129.1,129.1,0,0,1,40.16-1c13.82,1.78,27.42,4.35,40.13,10.19,36.9,16.95,63.26,43.76,76.12,82.79,5.16,15.65,6.3,31.76,4.38,48.14-1,8.55-1.36,17.18-3.28,25.6-2.37,10.37-6.72,20.05-11,29.73-11.61,26.56-27.54,50.5-45,73.52-1.14,1.5-2.31,3-3.46,4.48-2.28,2.95-4.29,6-4.92,9.8-.21,1.28-.86,2.12-2.32,2-1.64-.18-1.32-1.36-1.24-2.41.43-6,.88-11.94,1.29-17.92a6,6,0,0,1,4.17-5.52,26.38,26.38,0,0,0,5.92-3.5c3.7-2.75,5.92-6.18,5.85-11-.05-3.76.37-7.53.45-11.3a9.12,9.12,0,0,1,4.1-7.69,19.1,19.1,0,0,0,8.32-15c.46-7.52-2.87-12.56-10-15.2-7.62-2.84-14.69-1.32-20.62,4-8,7.23-6.83,19.64,2.76,25.95,4.35,2.85,5.69,6.25,5,10.93-.4,2.84-.08,5.77-1,8.54-1.26,3.9-3.39,6.75-7.8,7.61-5.07,1-7.8,5-8.42,11.32-.34,3.51-.1,7.07-.9,10.53-.66,2.92-2,4.1-5,4.05a18.88,18.88,0,0,1-16.48-9.62c-3.74-6.4-2.34-13.35,1.55-19.61,1.13-1.81,2.48-3.47,2.63-5.73.24-3.53-1.05-6.33-4.19-8-4-2.12-8.07-2.2-11.83.58-5.2,3.84-5,11.25.48,15.06a5.72,5.72,0,0,1,2.73,5.5c-.09,4.74-.53,9.51.41,14.24s3.27,8,8,9.4c2.2.66,4.32,1.57,6.53,2.18a5.32,5.32,0,0,1,4.24,5.35c.42,9.43.2,18.87-.14,28.31-.07,2.05-.2,4.1-.24,6.15-.08,3.73-1.49,5-5.15,4.88-12.39-.34-24.78-.42-37.17,0-3.91.15-5.24-1-5.24-4.94V437.32Z" transform="translate(-345.66 -20.67)"/><path class="cls-1" d="M478.91,664.53v17.2H435.32v15.43h39.35v17.2H435.32v15.56h44.77v17.2H413.76V664.53Z" transform="translate(-345.66 -20.67)"/><path class="cls-1" d="M541.93,664.53v64.21h35v18.38H520.37V664.53Z" transform="translate(-345.66 -20.67)"/><path class="cls-1" d="M642.07,732.51h-35.7l-5.77,14.61H578.45l35.46-82.59h22.15l34.64,82.59h-23ZM635.71,716,624.4,686.56,612.85,716Z" transform="translate(-345.66 -20.67)"/><path class="cls-1" d="M748,685.38c0,8.6-5.54,15.55-14.25,17.91,10.48,2.12,17,10.25,17,20.85,0,14.14-12.37,23-31.81,23H678.12V664.53h39.23C736.08,664.53,748,672.66,748,685.38Zm-22.15,3.77c0-4.95-3.77-7.77-9.66-7.77H699.56v16h16.61C722.06,697.4,725.83,694.34,725.83,689.15Zm2.59,32.28c0-5.18-4.71-8.48-12.25-8.48H699.56v17.44h16.61C723.71,730.39,728.42,727.09,728.42,721.43Z" transform="translate(-345.66 -20.67)"/><path class="cls-1" d="M792.75,681.14c-5.19,0-8.6,1.89-8.6,5.66,0,13.66,43.47,5.89,43.47,35.58,0,16.84-14.84,25.44-33.22,25.44-13.79,0-28.16-5.06-38.06-13.19l8.37-16.85c8.48,7.3,21.32,12.49,29.92,12.49,6.36,0,10.37-2.36,10.37-6.72,0-14-43.47-5.53-43.47-34.75,0-15.43,13.07-25.21,33-25.21,12.14,0,24.39,3.77,33,9.3L819.37,690C810.66,685,799.58,681.14,792.75,681.14Z" transform="translate(-345.66 -20.67)"/></svg>